<?xml version="1.0" encoding="UTF-8"?>
<svg width="80px" height="80px" viewBox="0 0 80 80" version="1.1" xmlns="http://www.w3.org/2000/svg" xmlns:xlink="http://www.w3.org/1999/xlink">
    <title>envelope-open-solid</title>
    <g id="MI" stroke="none" stroke-width="1" fill="none" fill-rule="evenodd">
        <g id="01-resource-center" transform="translate(-1121.000000, -661.000000)" fill="#37809F" fill-rule="nonzero">
            <g id="block" transform="translate(1020.000000, 581.000000)">
                <g id="envelope-open-solid" transform="translate(101.000000, 80.000000)">
                    <path d="M80,72.5000477 C80,76.6422088 76.6421875,80 72.5,80 L7.5,80 C3.3578125,80 0,76.6422088 0,72.5000477 L0,31.3634342 C0,29.0590652 1.05939086,26.8826233 2.87296875,25.4609717 C6.765625,22.4095849 9.9825,19.9352256 28.5292187,6.47499867 C31.158125,4.55829211 36.3745312,-0.0537098235 40,0.000484308396 C43.6246875,-0.0543348195 48.843125,4.55907335 51.4707813,6.47484242 C70.015625,19.9336631 73.236875,22.4114599 77.1270313,25.4609717 C78.9406091,26.8826233 80,29.0590652 80,31.3634342 L80,72.5000477 Z M69.7396875,41.7807117 C69.3392187,41.1982154 68.5365625,41.0627475 67.9679687,41.4827449 C64.3984375,44.1191344 59.3020312,47.8428607 51.4707812,53.5262621 C48.841875,55.4428124 43.6254687,60.0545018 40,59.9996584 C36.3732812,60.0534081 31.1626562,55.4460936 28.5292187,53.5262621 C20.6989062,47.8434857 15.6020312,44.1194469 12.0320312,41.4827449 C11.4634375,41.0627475 10.6607812,41.1982154 10.2603125,41.7807117 L8.8428125,43.8425736 C8.46088496,44.3978093 8.58800183,45.1558744 9.13015625,45.5561565 C12.70625,48.1966084 17.7948437,51.9139286 25.58375,57.5667051 C28.7515625,59.8762217 34.415625,65.0374389 40,65.0001459 C45.581875,65.0377514 51.2439062,59.8795029 54.4160937,57.5667051 C62.2051562,51.9137723 67.2939062,48.1964522 70.8696875,45.5561565 C71.4118419,45.1558744 71.5389588,44.3978093 71.1570312,43.8425736 L69.7396875,41.7807117 L69.7396875,41.7807117 Z" id="Shape"></path>
                </g>
            </g>
        </g>
    </g>
</svg>