<?xml version="1.0" encoding="UTF-8"?>
<svg width="80px" height="80px" viewBox="0 0 80 80" version="1.1" xmlns="http://www.w3.org/2000/svg" xmlns:xlink="http://www.w3.org/1999/xlink">
    <title>rocket-solid</title>
    <g id="MI" stroke="none" stroke-width="1" fill="none" fill-rule="evenodd">
        <g id="01-resource-center" transform="translate(-827.000000, -661.000000)" fill="#37809F" fill-rule="nonzero">
            <g id="block" transform="translate(726.000000, 581.000000)">
                <g id="rocket-solid" transform="translate(101.000000, 80.000000)">
                    <path d="M78.9250319,2.98339844 C78.7391803,2.11914062 77.8846897,1.26464844 77.0176881,1.07910156 C71.986877,0 68.0479707,0 64.126169,0 C47.996131,0 38.3232964,8.6254875 31.1019353,20 L14.8183942,20 C12.2640769,20.0024406 9.26267839,21.8554688 8.11735648,24.1381844 L0.393065636,39.5776375 C0.154358026,40.1041656 0.0208344016,40.6722638 0,41.25 C0,43.321113 1.67979625,44.9997543 3.75090948,45 L19.9712787,45 L16.459627,48.5107422 C14.6838129,50.28595 14.428991,53.551025 16.459627,55.5810547 L24.4134101,63.5351562 C26.156571,65.2832031 29.4378149,65.5908203 31.4879821,63.5351562 L34.9996338,60.0244141 L34.9996338,76.25 C35.0003817,78.3211124 36.6794291,80 38.7505417,80 C39.3283981,79.9786101 39.8965889,79.8451131 40.4235105,79.6069344 L55.8498141,71.8896484 C58.1355766,70.7495125 59.9916517,67.7490234 59.9916517,65.1928719 L59.9916517,48.8745125 C71.3350161,41.6381844 79.9971101,31.9360344 79.9971101,15.8911125 C80.0117616,11.953125 80.0117616,8.0151375 78.9250319,2.98339844 Z M60.0063033,26.2500002 C56.5547203,26.2491656 53.7572579,23.4505759 53.7578141,19.998993 C53.7583703,16.54741 56.5567347,13.7497221 60.0083177,13.7500002 C63.4599008,13.7502783 66.2578141,16.548417 66.2578141,20 C66.2558121,23.4515399 63.4578437,26.248832 60.0063033,26.2500002 Z" id="Shape"></path>
                </g>
            </g>
        </g>
    </g>
</svg>