<?xml version="1.0" encoding="UTF-8"?>
<svg width="40px" height="40px" viewBox="0 0 40 40" version="1.1" xmlns="http://www.w3.org/2000/svg" xmlns:xlink="http://www.w3.org/1999/xlink">
    <title>tools-solid</title>
    <g id="MI" stroke="none" stroke-width="1" fill="none" fill-rule="evenodd">
        <g id="01-resource-center" transform="translate(-162.000000, -621.000000)" fill="#37809F" fill-rule="nonzero">
            <g id="block-with-image" transform="translate(138.000000, 581.000000)">
                <g id="tools-solid" transform="translate(24.000000, 40.000000)">
                    <path d="M39.1485207,30.9110438 L30.0009765,21.7634997 C28.1964652,19.9589884 25.5014159,19.6074602 23.329753,20.6776682 L15.0024412,12.3503564 L15.0024412,7.49926765 L5.00341763,0 L0.00390586857,4.99951177 L7.50317352,14.9985353 L12.3542623,14.9985353 L20.6815741,23.3258471 C19.6191778,25.49751 19.9628942,28.1925593 21.7674055,29.9970706 L30.9149497,39.1446148 C32.0554633,40.2851284 33.8990333,40.2851284 35.0317352,39.1446148 L39.1485207,35.0278293 C40.2812225,33.8873157 40.2812225,32.0437457 39.1485207,30.9110438 L39.1485207,30.9110438 Z M25.9154379,17.5764086 C28.1261596,17.5764086 30.2040816,18.4356996 31.7664291,19.9980471 L33.2819061,21.5135241 C34.5161605,20.9745142 35.6879211,20.2245874 36.7034469,19.2090616 C39.6016014,16.3109071 40.5858803,12.2331804 39.6640953,8.53041695 C39.4922371,7.82736061 38.6095108,7.58519676 38.0939361,8.10077141 L32.2820037,13.9127038 L26.9778342,13.0299775 L26.0951079,7.72580803 L31.9070403,1.9138756 C32.422615,1.39830095 32.1726394,0.515574651 31.4617713,0.335904697 C27.7590079,-0.578068548 23.6812811,0.406210331 20.7909384,3.29655307 C18.5645933,5.52289815 17.5178205,8.46011132 17.5725027,11.3895127 L23.9859389,17.8029489 C24.6186896,17.6545259 25.2748755,17.5764086 25.9154379,17.5764086 Z M17.7990431,23.982033 L13.3697881,19.552778 L1.46470071,31.4656772 C-0.488233571,33.4186115 -0.488233571,36.582365 1.46470071,38.5352993 C3.417635,40.4882336 6.58138854,40.4882336 8.53432282,38.5352993 L18.1896299,28.8799922 C17.5959379,27.3254565 17.4162679,25.6303095 17.7990431,23.982033 L17.7990431,23.982033 Z M5.00341763,36.8713993 C3.97226833,36.8713993 3.12860072,36.0277317 3.12860072,34.9965824 C3.12860072,33.9576213 3.9644566,33.1217655 5.00341763,33.1217655 C6.04237867,33.1217655 6.87823455,33.9576213 6.87823455,34.9965824 C6.87823455,36.0277317 6.04237867,36.8713993 5.00341763,36.8713993 Z" id="Shape"></path>
                </g>
            </g>
        </g>
    </g>
</svg>